<svg width="24" height="24" viewBox="0 0 24 24" fill="none" xmlns="http://www.w3.org/2000/svg">
<g clip-path="url(#clip0_6_918)">
<path d="M23.4105 8.5894C23.0967 8.19573 22.626 7.96988 22.1188 7.96988H17.5423L15.0607 2.28741C14.9068 1.93509 14.4965 1.77408 14.1441 1.92803C13.7917 2.08189 13.6308 2.49232 13.7847 2.84469L16.023 7.96993H7.74021L9.97848 2.84469C10.1323 2.49232 9.97147 2.08194 9.6191 1.92803C9.26678 1.77408 8.85635 1.93499 8.70249 2.28741L6.22084 7.96993H1.64434C1.13723 7.96993 0.666463 8.19572 0.352666 8.58945C0.0446229 8.97597 -0.0690424 9.47287 0.0408171 9.95287L2.48478 20.6278C2.65544 21.3732 3.31483 21.8938 4.0883 21.8938H19.6749C20.4484 21.8938 21.1077 21.3732 21.2784 20.6278L23.7224 9.95283C23.8322 9.47282 23.7186 8.97593 23.4105 8.5894ZM19.6749 20.5014H4.0883C3.97009 20.5014 3.86654 20.4239 3.84208 20.317L1.39812 9.64214C1.37895 9.55836 1.41111 9.49533 1.44156 9.45723C1.46978 9.42177 1.53369 9.36231 1.64434 9.36231H5.61278L5.43043 9.77989C5.27657 10.1323 5.43744 10.5426 5.7898 10.6965C5.88049 10.7362 5.97499 10.7549 6.06805 10.7549C6.33641 10.7549 6.59214 10.5988 6.70641 10.3372L7.13216 9.36241H16.6311L17.0569 10.3372C17.1711 10.5989 17.4269 10.7549 17.6952 10.7549C17.7882 10.7549 17.8828 10.7362 17.9735 10.6965C18.3258 10.5427 18.4868 10.1323 18.3329 9.77989L18.1505 9.36231H22.1189C22.2296 9.36231 22.2935 9.42177 22.3217 9.45723C22.3521 9.49538 22.3843 9.55841 22.3652 9.64209L19.9212 20.3171C19.8967 20.4239 19.7931 20.5014 19.6749 20.5014Z" fill="white"/>
<path d="M7.70449 12.3792C7.32001 12.3792 7.0083 12.6909 7.0083 13.0753V18.1808C7.0083 18.5653 7.32001 18.877 7.70449 18.877C8.08898 18.877 8.40069 18.5653 8.40069 18.1808V13.0753C8.40069 12.6909 8.08903 12.3792 7.70449 12.3792Z" fill="white"/>
<path d="M11.8816 12.3792C11.4971 12.3792 11.1854 12.6909 11.1854 13.0753V18.1808C11.1854 18.5653 11.4971 18.877 11.8816 18.877C12.2661 18.877 12.5778 18.5653 12.5778 18.1808V13.0753C12.5778 12.6909 12.2661 12.3792 11.8816 12.3792Z" fill="white"/>
<path d="M16.0589 12.3792C15.6744 12.3792 15.3627 12.6909 15.3627 13.0753V18.1808C15.3627 18.5653 15.6744 18.877 16.0589 18.877C16.4433 18.877 16.7551 18.5653 16.7551 18.1808V13.0753C16.755 12.6909 16.4433 12.3792 16.0589 12.3792Z" fill="white"/>
</g>
<defs>
<clipPath id="clip0_6_918">
<rect width="23.7634" height="23.7634" fill="white"/>
</clipPath>
</defs>
</svg>
