<svg width="22" height="21" viewBox="0 0 22 21" fill="none" xmlns="http://www.w3.org/2000/svg">
<g clip-path="url(#clip0_6_924)">
<path d="M10.679 10.1002C12.1128 10.1002 13.3542 9.60256 14.3689 8.62066C15.3832 7.63892 15.8976 6.4377 15.8976 5.04996C15.8976 3.66269 15.3833 2.46131 14.3687 1.47925C13.3541 0.497669 12.1126 0 10.679 0C9.24495 0 8.00369 0.497669 6.98922 1.47941C5.97475 2.46115 5.46033 3.66253 5.46033 5.04996C5.46033 6.4377 5.97475 7.63908 6.98922 8.62082C8.00402 9.6024 9.24545 10.1002 10.679 10.1002ZM7.88715 2.34821C8.66556 1.59491 9.5787 1.22874 10.679 1.22874C11.7791 1.22874 12.6924 1.59491 13.4709 2.34821C14.2493 3.10167 14.6279 3.98551 14.6279 5.04996C14.6279 6.11472 14.2493 6.9984 13.4709 7.75186C12.6924 8.50533 11.7791 8.8715 10.679 8.8715C9.57903 8.8715 8.66589 8.50517 7.88715 7.75186C7.10857 6.99856 6.73002 6.11472 6.73002 5.04996C6.73002 3.98551 7.10857 3.10167 7.88715 2.34821Z" fill="white"/>
<path d="M19.8101 16.1231C19.7809 15.7145 19.7217 15.2688 19.6346 14.7982C19.5466 14.324 19.4334 13.8758 19.2979 13.4661C19.1577 13.0427 18.9674 12.6245 18.7319 12.2238C18.4877 11.8079 18.2007 11.4457 17.8787 11.1477C17.542 10.8359 17.1297 10.5852 16.653 10.4024C16.1779 10.2205 15.6514 10.1283 15.0882 10.1283C14.8671 10.1283 14.6532 10.2162 14.2401 10.4764C13.9858 10.6369 13.6884 10.8224 13.3565 11.0277C13.0727 11.2027 12.6882 11.3667 12.2133 11.5151C11.7499 11.6602 11.2795 11.7338 10.815 11.7338C10.3508 11.7338 9.88035 11.6602 9.41668 11.5151C8.94226 11.3668 8.55759 11.2029 8.27426 11.0278C7.94548 10.8245 7.64793 10.639 7.38989 10.4763C6.97713 10.216 6.76323 10.1282 6.54205 10.1282C5.9787 10.1282 5.45237 10.2205 4.97745 10.4025C4.50105 10.5851 4.08862 10.8357 3.75156 11.1478C3.42955 11.446 3.14258 11.808 2.8986 12.2238C2.66337 12.6245 2.47294 13.0425 2.33276 13.4663C2.19738 13.876 2.08415 14.324 1.99621 14.7982C1.90893 15.2682 1.84991 15.714 1.82065 16.1236C1.79189 16.524 1.77734 16.9407 1.77734 17.3617C1.77734 18.4563 2.13688 19.3423 2.84587 19.9958C3.54609 20.6407 4.47245 20.9676 5.59932 20.9676H16.032C17.1585 20.9676 18.0849 20.6407 18.7852 19.9958C19.4944 19.3428 19.8539 18.4564 19.8539 17.3616C19.8538 16.9391 19.8391 16.5224 19.8101 16.1231ZM17.9098 19.1056C17.4471 19.5317 16.8328 19.7389 16.0318 19.7389H5.59932C4.7981 19.7389 4.18383 19.5317 3.72131 19.1057C3.26755 18.6877 3.04704 18.1171 3.04704 17.3617C3.04704 16.9688 3.06043 16.5809 3.08721 16.2085C3.11333 15.8431 3.16672 15.4418 3.2459 15.0153C3.32409 14.5941 3.4236 14.1988 3.54196 13.8409C3.65552 13.4978 3.81041 13.158 4.00249 12.8307C4.18581 12.5188 4.39674 12.2511 4.62949 12.0355C4.84719 11.8338 5.1216 11.6687 5.44493 11.5449C5.74396 11.4303 6.08003 11.3676 6.44485 11.3582C6.48932 11.3811 6.5685 11.4247 6.69677 11.5057C6.95779 11.6703 7.25864 11.8581 7.59123 12.0637C7.96614 12.295 8.44916 12.5039 9.02623 12.6842C9.6162 12.8688 10.2179 12.9625 10.8151 12.9625C11.4124 12.9625 12.0143 12.8688 12.6039 12.6843C13.1815 12.5037 13.6643 12.295 14.0397 12.0633C14.3801 11.8528 14.6725 11.6705 14.9335 11.5057C15.0618 11.4249 15.141 11.3811 15.1854 11.3582C15.5504 11.3676 15.8865 11.4303 16.1857 11.5449C16.5089 11.6687 16.7833 11.8339 17.001 12.0355C17.2337 12.251 17.4446 12.5186 17.628 12.8309C17.8202 13.158 17.9753 13.498 18.0887 13.8408C18.2072 14.1991 18.3069 14.5942 18.3849 15.0151C18.4639 15.4424 18.5175 15.8439 18.5436 16.2087V16.209C18.5705 16.58 18.5841 16.9677 18.5842 17.3617C18.5841 18.1173 18.3636 18.6877 17.9098 19.1056Z" fill="white"/>
</g>
<defs>
<clipPath id="clip0_6_924">
<rect width="21.6667" height="20.9677" fill="white"/>
</clipPath>
</defs>
</svg>
