<svg width="17" height="19" viewBox="0 0 17 19" fill="none" xmlns="http://www.w3.org/2000/svg">
<path d="M5.5 5.75C5.9125 5.75 6.25 5.4125 6.25 5V4.25C6.25 3.005 7.255 2 8.5 2C9.745 2 10.75 3.005 10.75 4.25V5C10.75 5.4125 11.0875 5.75 11.5 5.75C11.9125 5.75 12.25 5.4125 12.25 5V4.25C12.25 2.18 10.57 0.5 8.5 0.5C6.43 0.5 4.75 2.18 4.75 4.25V5C4.75 5.4125 5.0875 5.75 5.5 5.75ZM8.5 11.75C6.43 11.75 4.75 10.07 4.75 8C4.75 7.5875 5.0875 7.25 5.5 7.25C5.9125 7.25 6.25 7.5875 6.25 8C6.25 9.245 7.255 10.25 8.5 10.25C9.745 10.25 10.75 9.245 10.75 8C10.75 7.5875 11.0875 7.25 11.5 7.25C11.9125 7.25 12.25 7.5875 12.25 8C12.25 10.07 10.57 11.75 8.5 11.75ZM16.75 13.925L16 6.5C16 5.255 14.995 4.25 13.75 4.25H3.25C2.035 4.2425 1.0375 5.21 1 6.425L0.25 14C0.25 16.4825 2.2675 18.5 4.75 18.5H12.25C14.7475 18.4925 16.7575 16.46 16.75 13.9625C16.75 13.955 16.75 13.94 16.75 13.925Z" fill="#1E1E1E"/>
</svg>
